<?xml version="1.0" standalone="no"?>
<!DOCTYPE svg PUBLIC "-//W3C//DTD SVG 20010904//EN"
 "http://www.w3.org/TR/2001/REC-SVG-20010904/DTD/svg10.dtd">
<svg version="1.0" xmlns="http://www.w3.org/2000/svg"
 width="1920.000000pt" height="1920.000000pt" viewBox="0 0 1920.000000 1920.000000"
 preserveAspectRatio="xMidYMid meet">

<g transform="translate(0.000000,1920.000000) scale(0.100000,-0.100000)"
fill="#000000" stroke="none">
<path d="M9323 16133 c-149 -258 -859 -1487 -1578 -2733 -1300 -2252 -1897
-3285 -2780 -4815 -2283 -3953 -3345 -5795 -3345 -5799 0 -3 3591 -6 7980 -6
4389 0 7980 3 7980 6 0 4 -986 1714 -3345 5799 -950 1645 -1507 2610 -2780
4815 -719 1246 -1429 2475 -1578 2733 -148 257 -273 467 -277 467 -4 0 -129
-210 -277 -467z m82 -4110 c-3 -9 -26 -13 -65 -13 -88 0 -332 -27 -508 -56
-660 -109 -1331 -387 -1889 -783 -40 -28 -73 -49 -73 -46 0 3 151 267 336 588
185 320 430 744 544 942 114 198 279 484 367 635 87 151 413 715 723 1253
l565 978 3 -1743 c1 -959 0 -1749 -3 -1755z m965 2502 c299 -517 658 -1140
800 -1385 141 -245 300 -519 352 -610 52 -91 255 -443 451 -782 197 -340 357
-620 357 -623 0 -3 -33 18 -72 46 -372 263 -828 492 -1253 628 -351 113 -812
198 -1150 213 l-60 3 -2 1755 c-3 1724 -2 1754 16 1725 11 -16 263 -453 561
-970z m-960 -7090 l0 -4205 -45 0 c-74 0 -326 29 -478 55 -1022 173 -1963 738
-2609 1566 -917 1176 -1141 2762 -586 4144 362 899 1027 1651 1878 2123 529
293 1146 475 1745 515 28 2 60 4 73 5 l22 2 0 -4205z m665 4179 c1086 -117
2114 -685 2810 -1554 971 -1214 1195 -2849 585 -4280 -555 -1304 -1763 -2259
-3157 -2495 -152 -26 -404 -55 -478 -55 l-45 0 0 4205 0 4205 73 -6 c39 -3
135 -12 212 -20z m-5044 -3790 c-28 -326 -21 -635 20 -967 97 -789 405 -1544
892 -2191 476 -631 1155 -1161 1867 -1456 58 -24 109 -47 114 -52 6 -4 -1265
-8 -2823 -8 -2451 0 -2832 2 -2828 14 5 12 369 644 1147 1991 92 160 325 562
517 895 192 333 517 896 723 1252 206 356 375 646 377 644 3 -2 0 -57 -6 -122z
m9554 -599 c564 -978 1046 -1814 1195 -2070 499 -863 1142 -1979 1147 -1991 4
-12 -381 -14 -2828 -14 -1558 0 -2829 4 -2823 8 5 5 56 28 114 52 712 295
1391 825 1867 1456 186 246 318 462 457 744 285 576 431 1148 467 1819 10 196
3 484 -17 669 -6 52 -5 55 8 37 8 -11 194 -330 413 -710z"/>
</g>
</svg>
