<svg width="120" height="120" viewBox="0 0 120 120" fill="none" xmlns="http://www.w3.org/2000/svg">
<circle cx="60" cy="60" r="55" stroke="#2F71E5" stroke-width="10"/>
<path d="M34.7592 50.0909H31.0014L26.3203 53.0547V56.6001L30.6506 53.8857H30.7614V69H34.7592V50.0909ZM46.6674 69.4155C51.4224 69.4155 54.2939 65.7962 54.3031 59.5639C54.3123 53.3778 51.4039 49.8324 46.6674 49.8324C41.9217 49.8324 39.041 53.3686 39.0318 59.5639C39.0133 65.7777 41.9032 69.4062 46.6674 69.4155ZM46.6674 66.1009C44.4977 66.1009 43.0943 63.9219 43.1035 59.5639C43.1127 55.2706 44.5069 53.1101 46.6674 53.1101C48.8187 53.1101 50.2221 55.2706 50.2221 59.5639C50.2314 63.9219 48.8279 66.1009 46.6674 66.1009ZM64.5678 69.4155C69.3228 69.4155 72.1942 65.7962 72.2035 59.5639C72.2127 53.3778 69.3043 49.8324 64.5678 49.8324C59.8221 49.8324 56.9414 53.3686 56.9322 59.5639C56.9137 65.7777 59.8036 69.4062 64.5678 69.4155ZM64.5678 66.1009C62.3981 66.1009 60.9947 63.9219 61.0039 59.5639C61.0131 55.2706 62.4073 53.1101 64.5678 53.1101C66.7191 53.1101 68.1225 55.2706 68.1225 59.5639C68.1317 63.9219 66.7283 66.1009 64.5678 66.1009ZM85.4043 65.4545C85.4135 67.7259 86.8631 69.6555 89.5684 69.6555C92.2459 69.6555 93.7417 67.7259 93.7324 65.4545V64.4574C93.7417 62.1676 92.2828 60.2564 89.5684 60.2564C86.9 60.2564 85.4135 62.1861 85.4043 64.4574V65.4545ZM75.7005 54.6335C75.7097 56.9048 77.1593 58.8161 79.8553 58.8161C82.5421 58.8161 84.0378 56.9233 84.0286 54.6335V53.6364C84.0378 51.3466 82.579 49.4354 79.8553 49.4354C77.2147 49.4354 75.7097 51.3466 75.7005 53.6364V54.6335ZM76.6053 69H79.0151L92.0151 50.0909H89.6053L76.6053 69ZM88.0911 64.4574C88.1003 63.5526 88.4604 62.62 89.5684 62.62C90.7317 62.62 91.0364 63.5526 91.0272 64.4574V65.4545C91.0364 66.3594 90.6948 67.2734 89.5684 67.2734C88.4419 67.2734 88.1003 66.3317 88.0911 65.4545V64.4574ZM78.4057 53.6364C78.415 52.7592 78.7566 51.799 79.8553 51.799C81.0186 51.799 81.3326 52.7315 81.3233 53.6364V54.6335C81.3326 55.5384 80.9817 56.4524 79.8553 56.4524C78.7658 56.4524 78.415 55.5384 78.4057 54.6335V53.6364Z" fill="#8B8B8B"/>
</svg>
