<svg width="120" height="120" viewBox="0 0 120 120" fill="none" xmlns="http://www.w3.org/2000/svg">
<circle cx="60" cy="60" r="55" stroke="#CFCFCF" stroke-width="10"/>
<path d="M60 115C90.3757 115 115 90.3757 115 60C115 29.6243 90.3757 5 60 5" stroke="#2F71E5" stroke-width="10"/>
<path d="M39.4389 69.2585C43.6491 69.2585 46.5114 66.5163 46.5021 62.6939C46.5114 59.0746 43.9815 56.4709 40.5746 56.4709C38.9126 56.4709 37.4815 57.1634 36.8168 58.0959H36.706L37.1953 53.3594H45.4588V50.0909H33.8991L33.0036 60.0625L36.5582 60.6996C37.1399 59.9148 38.2663 59.4254 39.3835 59.4254C41.2855 59.4347 42.652 60.8104 42.652 62.7955C42.652 64.7621 41.3132 66.1193 39.4389 66.1193C37.8509 66.1193 36.5675 65.1222 36.4751 63.6541H32.5973C32.6712 66.9226 35.5241 69.2585 39.4389 69.2585ZM56.7045 69.4155C61.4595 69.4155 64.331 65.7962 64.3402 59.5639C64.3494 53.3778 61.4411 49.8324 56.7045 49.8324C51.9588 49.8324 49.0781 53.3686 49.0689 59.5639C49.0504 65.7777 51.9403 69.4062 56.7045 69.4155ZM56.7045 66.1009C54.5348 66.1009 53.1314 63.9219 53.1406 59.5639C53.1499 55.2706 54.544 53.1101 56.7045 53.1101C58.8558 53.1101 60.2592 55.2706 60.2592 59.5639C60.2685 63.9219 58.8651 66.1009 56.7045 66.1009ZM77.541 65.4545C77.5502 67.7259 78.9998 69.6555 81.7051 69.6555C84.3826 69.6555 85.8784 67.7259 85.8691 65.4545V64.4574C85.8784 62.1676 84.4196 60.2564 81.7051 60.2564C79.0368 60.2564 77.5502 62.1861 77.541 64.4574V65.4545ZM67.8372 54.6335C67.8464 56.9048 69.296 58.8161 71.992 58.8161C74.6788 58.8161 76.1745 56.9233 76.1653 54.6335V53.6364C76.1745 51.3466 74.7157 49.4354 71.992 49.4354C69.3514 49.4354 67.8464 51.3466 67.8372 53.6364V54.6335ZM68.742 69H71.1518L84.1518 50.0909H81.742L68.742 69ZM80.2278 64.4574C80.237 63.5526 80.5971 62.62 81.7051 62.62C82.8684 62.62 83.1731 63.5526 83.1639 64.4574V65.4545C83.1731 66.3594 82.8315 67.2734 81.7051 67.2734C80.5787 67.2734 80.237 66.3317 80.2278 65.4545V64.4574ZM70.5424 53.6364C70.5517 52.7592 70.8933 51.799 71.992 51.799C73.1554 51.799 73.4693 52.7315 73.46 53.6364V54.6335C73.4693 55.5384 73.1184 56.4524 71.992 56.4524C70.9025 56.4524 70.5517 55.5384 70.5424 54.6335V53.6364Z" fill="#8B8B8B"/>
</svg>
